<?xml version="1.0" standalone="no"?>
<svg xmlns:xlink="http://www.w3.org/1999/xlink" id="wave" style="transform:rotate(0deg); transition: 0.3s" viewBox="0 0 1440 490" version="1.1" xmlns="http://www.w3.org/2000/svg"><defs><linearGradient id="sw-gradient-0" x1="0" x2="0" y1="1" y2="0"><stop stop-color="rgba(243.936, 187.06, 168.793, 1)" offset="0%"/><stop stop-color="rgba(255, 235.914, 193.724, 1)" offset="100%"/></linearGradient></defs><path style="transform:translate(0, 0px); opacity:1" fill="url(#sw-gradient-0)" d="M0,392L80,351.2C160,310,320,229,480,212.3C640,196,800,245,960,277.7C1120,310,1280,327,1440,310.3C1600,294,1760,245,1920,261.3C2080,278,2240,359,2400,351.2C2560,343,2720,245,2880,204.2C3040,163,3200,180,3360,228.7C3520,278,3680,359,3840,343C4000,327,4160,212,4320,212.3C4480,212,4640,327,4800,318.5C4960,310,5120,180,5280,179.7C5440,180,5600,310,5760,326.7C5920,343,6080,245,6240,204.2C6400,163,6560,180,6720,179.7C6880,180,7040,163,7200,155.2C7360,147,7520,147,7680,179.7C7840,212,8000,278,8160,318.5C8320,359,8480,376,8640,392C8800,408,8960,425,9120,383.8C9280,343,9440,245,9600,204.2C9760,163,9920,180,10080,171.5C10240,163,10400,131,10560,130.7C10720,131,10880,163,11040,163.3C11200,163,11360,131,11440,114.3L11520,98L11520,490L11440,490C11360,490,11200,490,11040,490C10880,490,10720,490,10560,490C10400,490,10240,490,10080,490C9920,490,9760,490,9600,490C9440,490,9280,490,9120,490C8960,490,8800,490,8640,490C8480,490,8320,490,8160,490C8000,490,7840,490,7680,490C7520,490,7360,490,7200,490C7040,490,6880,490,6720,490C6560,490,6400,490,6240,490C6080,490,5920,490,5760,490C5600,490,5440,490,5280,490C5120,490,4960,490,4800,490C4640,490,4480,490,4320,490C4160,490,4000,490,3840,490C3680,490,3520,490,3360,490C3200,490,3040,490,2880,490C2720,490,2560,490,2400,490C2240,490,2080,490,1920,490C1760,490,1600,490,1440,490C1280,490,1120,490,960,490C800,490,640,490,480,490C320,490,160,490,80,490L0,490Z"/><defs><linearGradient id="sw-gradient-1" x1="0" x2="0" y1="1" y2="0"><stop stop-color="rgba(214.338, 119.482, 89.018, 1)" offset="0%"/><stop stop-color="rgba(255, 227.843, 167.811, 1)" offset="100%"/></linearGradient></defs><path style="transform:translate(0, 50px); opacity:0.9" fill="url(#sw-gradient-1)" d="M0,392L80,334.8C160,278,320,163,480,163.3C640,163,800,278,960,343C1120,408,1280,425,1440,432.8C1600,441,1760,441,1920,408.3C2080,376,2240,310,2400,261.3C2560,212,2720,180,2880,138.8C3040,98,3200,49,3360,24.5C3520,0,3680,0,3840,0C4000,0,4160,0,4320,32.7C4480,65,4640,131,4800,171.5C4960,212,5120,229,5280,220.5C5440,212,5600,180,5760,138.8C5920,98,6080,49,6240,40.8C6400,33,6560,65,6720,98C6880,131,7040,163,7200,147C7360,131,7520,65,7680,65.3C7840,65,8000,131,8160,171.5C8320,212,8480,229,8640,204.2C8800,180,8960,114,9120,73.5C9280,33,9440,16,9600,16.3C9760,16,9920,33,10080,57.2C10240,82,10400,114,10560,155.2C10720,196,10880,245,11040,285.8C11200,327,11360,359,11440,375.7L11520,392L11520,490L11440,490C11360,490,11200,490,11040,490C10880,490,10720,490,10560,490C10400,490,10240,490,10080,490C9920,490,9760,490,9600,490C9440,490,9280,490,9120,490C8960,490,8800,490,8640,490C8480,490,8320,490,8160,490C8000,490,7840,490,7680,490C7520,490,7360,490,7200,490C7040,490,6880,490,6720,490C6560,490,6400,490,6240,490C6080,490,5920,490,5760,490C5600,490,5440,490,5280,490C5120,490,4960,490,4800,490C4640,490,4480,490,4320,490C4160,490,4000,490,3840,490C3680,490,3520,490,3360,490C3200,490,3040,490,2880,490C2720,490,2560,490,2400,490C2240,490,2080,490,1920,490C1760,490,1600,490,1440,490C1280,490,1120,490,960,490C800,490,640,490,480,490C320,490,160,490,80,490L0,490Z"/><defs><linearGradient id="sw-gradient-2" x1="0" x2="0" y1="1" y2="0"><stop stop-color="rgba(250.767, 140.861, 105.563, 1)" offset="0%"/><stop stop-color="rgba(255, 200.937, 81.431, 1)" offset="100%"/></linearGradient></defs><path style="transform:translate(0, 100px); opacity:0.8" fill="url(#sw-gradient-2)" d="M0,441L80,392C160,343,320,245,480,212.3C640,180,800,212,960,196C1120,180,1280,114,1440,147C1600,180,1760,310,1920,351.2C2080,392,2240,343,2400,285.8C2560,229,2720,163,2880,187.8C3040,212,3200,327,3360,367.5C3520,408,3680,376,3840,367.5C4000,359,4160,376,4320,392C4480,408,4640,425,4800,400.2C4960,376,5120,310,5280,277.7C5440,245,5600,245,5760,220.5C5920,196,6080,147,6240,106.2C6400,65,6560,33,6720,57.2C6880,82,7040,163,7200,196C7360,229,7520,212,7680,212.3C7840,212,8000,229,8160,204.2C8320,180,8480,114,8640,81.7C8800,49,8960,49,9120,81.7C9280,114,9440,180,9600,228.7C9760,278,9920,310,10080,269.5C10240,229,10400,114,10560,81.7C10720,49,10880,98,11040,106.2C11200,114,11360,82,11440,65.3L11520,49L11520,490L11440,490C11360,490,11200,490,11040,490C10880,490,10720,490,10560,490C10400,490,10240,490,10080,490C9920,490,9760,490,9600,490C9440,490,9280,490,9120,490C8960,490,8800,490,8640,490C8480,490,8320,490,8160,490C8000,490,7840,490,7680,490C7520,490,7360,490,7200,490C7040,490,6880,490,6720,490C6560,490,6400,490,6240,490C6080,490,5920,490,5760,490C5600,490,5440,490,5280,490C5120,490,4960,490,4800,490C4640,490,4480,490,4320,490C4160,490,4000,490,3840,490C3680,490,3520,490,3360,490C3200,490,3040,490,2880,490C2720,490,2560,490,2400,490C2240,490,2080,490,1920,490C1760,490,1600,490,1440,490C1280,490,1120,490,960,490C800,490,640,490,480,490C320,490,160,490,80,490L0,490Z"/></svg>